<?xml version="1.0" encoding="UTF-8" standalone="no"?>
<svg
   xmlns:dc="http://purl.org/dc/elements/1.1/"
   xmlns:cc="http://creativecommons.org/ns#"
   xmlns:rdf="http://www.w3.org/1999/02/22-rdf-syntax-ns#"
   xmlns:svg="http://www.w3.org/2000/svg"
   xmlns="http://www.w3.org/2000/svg"
   xmlns:sodipodi="http://sodipodi.sourceforge.net/DTD/sodipodi-0.dtd"
   xmlns:inkscape="http://www.inkscape.org/namespaces/inkscape"
   inkscape:version="1.0beta1 (32d4812, 2019-09-19)"
   sodipodi:docname="Logo-Red_Hat-OpenStack-B-Reverse-RGB.svg"
   id="svg144"
   version="1.1"
   viewBox="0 0 757 331">
  <metadata
     id="metadata148">
    <rdf:RDF>
      <cc:Work
         rdf:about="">
        <dc:format>image/svg+xml</dc:format>
        <dc:type
           rdf:resource="http://purl.org/dc/dcmitype/StillImage" />
        <dc:title>Logo-Red_Hat-OpenStack_Platform-B-Reverse-RGB</dc:title>
      </cc:Work>
    </rdf:RDF>
  </metadata>
  <sodipodi:namedview
     inkscape:current-layer="svg144"
     inkscape:window-maximized="0"
     inkscape:window-y="248"
     inkscape:window-x="1771"
     inkscape:cy="560"
     inkscape:cx="400"
     inkscape:zoom="0.35"
     showgrid="false"
     id="namedview146"
     inkscape:window-height="855"
     inkscape:window-width="1440"
     inkscape:pageshadow="2"
     inkscape:pageopacity="0"
     guidetolerance="10"
     gridtolerance="10"
     objecttolerance="10"
     borderopacity="1"
     inkscape:document-rotation="0"
     bordercolor="#666666"
     pagecolor="#ffffff" />
  <defs
     id="defs100">
    <style
       id="style98">.a{fill:#fff;}.b{fill:#e00;}</style>
  </defs>
  <title
     id="title102">Logo-Red_Hat-OpenStack_Platform-B-Reverse-RGB</title>
  <path
     id="path104"
     d="M263.39,220.68c-21.22,0-37.86-16.54-37.86-37.54s16.64-37.55,37.86-37.55,38,16.54,38,37.55S284.61,220.68,263.39,220.68Zm0-65c-15.08,0-26.73,11.85-26.73,27.46s11.65,27.45,26.73,27.45,26.83-12,26.83-27.45S278.57,155.68,263.39,155.68Z"
     class="a" />
  <path
     id="path106"
     d="M311.64,166.6h10.3v5a25,25,0,0,1,16.22-5.82c15.08,0,26.73,12.06,26.73,27.25s-11.65,27.35-27,27.35a26.2,26.2,0,0,1-15.81-5.2v25.89h-10.4ZM322,181.06v24.12a19.69,19.69,0,0,0,14.67,6.14c10.29,0,18-7.9,18-18.2,0-10.5-7.9-18.31-18-18.31C330.57,174.81,325.48,177.1,322,181.06Z"
     class="a" />
  <path
     id="path108"
     d="M398.9,165.77c14.56,0,25.58,12.06,25.58,27.66v3H382.67a17.86,17.86,0,0,0,17.89,15.18A20.62,20.62,0,0,0,414,207l6.66,6.55a31.22,31.22,0,0,1-20.49,7c-15.6,0-27.77-12-27.77-27.45C372.38,177.83,383.92,165.77,398.9,165.77Zm-16.12,22.88h31.41c-1.46-8.11-7.8-14.15-15.5-14.15C390.58,174.5,384.34,180.33,382.78,188.65Z"
     class="a" />
  <path
     id="path110"
     d="M434.26,166.6h10.4v5.3a21.62,21.62,0,0,1,15.91-6.34c12.17,0,20.59,8.53,20.59,20.7v33.28H470.87V188c0-8.21-5-13.41-13.21-13.41a14.91,14.91,0,0,0-13,6.86v38.07h-10.4Z"
     class="a" />
  <path
     id="path112"
     d="M494.68,199.78c7.8,7.69,15.81,11.44,25.07,11.44,10.6,0,17.68-5,17.68-12.17,0-6.35-4-9.67-14.77-11.44l-12.17-2C497,183.34,490.62,177,490.62,166.7c0-12.58,10.51-20.9,26.84-20.9a49.28,49.28,0,0,1,29.33,9.88l-6,8.32c-7.9-6-15.81-8.95-23.81-8.95-9.47,0-15.81,4.37-15.81,10.82,0,5.82,3.64,8.74,13,10.3L525.88,178c15.5,2.5,22.36,8.94,22.36,20.18,0,13.31-11.65,22.36-29,22.36A43.85,43.85,0,0,1,488,207.47Z"
     class="a" />
  <path
     id="path114"
     d="M561.86,175.33H550.63V166.6h11.23V153.08l10.3-2.5v16h15.6v8.73h-15.6V204c0,5.41,2.19,7.38,7.8,7.38a20.18,20.18,0,0,0,7.59-1.24v8.73a35.44,35.44,0,0,1-9.88,1.56c-10.29,0-15.81-4.89-15.81-14Z"
     class="a" />
  <path
     id="path116"
     d="M592.75,204.35c0-10.61,9-16.12,21.43-16.12a36.59,36.59,0,0,1,14.45,2.91v-5.61c0-7.49-4.47-11.23-12.89-11.23-5.1,0-10.3,1.55-16.44,4.47l-3.84-7.8c7.48-3.54,14.35-5.41,21.73-5.41,13.63,0,21.64,6.66,21.64,18.93v35h-10.2V215a24.92,24.92,0,0,1-16.43,5.51C600.66,220.47,592.75,213.82,592.75,204.35Zm21.84,8.43a20.34,20.34,0,0,0,14-5v-9.25A27.75,27.75,0,0,0,615,195.41c-7.28,0-12.27,3.22-12.27,8.73C602.74,209.34,607.62,212.78,614.59,212.78Z"
     class="a" />
  <path
     id="path118"
     d="M690.41,204.87l6.24,6.76a29.26,29.26,0,0,1-20.91,8.84,27.46,27.46,0,0,1,0-54.91,30.3,30.3,0,0,1,21.32,8.84l-6.55,7.07A19.66,19.66,0,0,0,676,174.81c-9.67,0-17.16,8-17.16,18.21,0,10.4,7.59,18.3,17.37,18.3C681.57,211.32,686.25,209.14,690.41,204.87Z"
     class="a" />
  <path
     id="path120"
     d="M705.07,146.73l10.4-2.28v45.34l25.69-23.19h12.17L726,191.46l28.71,28.08H741.05l-25.58-24.86v24.86h-10.4Z"
     class="a" />
  <path
     id="path138"
     d="M129,85c12.51,0,30.61-2.58,30.61-17.46a14,14,0,0,0-.31-3.42l-7.45-32.36c-1.72-7.12-3.23-10.35-15.73-16.6C126.39,10.19,105.26,2,99,2c-5.82,0-7.55,7.54-14.45,7.54-6.68,0-11.64-5.6-17.89-5.6-6,0-9.91,4.09-12.93,12.5,0,0-8.41,23.72-9.49,27.16A6.43,6.43,0,0,0,44,45.54C44,54.76,80.33,85,129,85m32.55-11.42c1.73,8.19,1.73,9.05,1.73,10.13,0,14-15.74,21.77-36.43,21.77C80,105.47,39.08,78.1,39.08,60a18.45,18.45,0,0,1,1.51-7.33C23.77,53.52,2,56.54,2,75.72,2,107.2,76.59,146,135.65,146c45.28,0,56.7-20.48,56.7-36.65,0-12.72-11-27.16-30.83-35.78"
     class="b" />
  <path
     id="path140"
     d="M161.52,73.57c1.73,8.19,1.73,9.05,1.73,10.13,0,14-15.74,21.77-36.43,21.77C80,105.47,39.08,78.1,39.08,60a18.45,18.45,0,0,1,1.51-7.33l3.66-9.06A6.43,6.43,0,0,0,44,45.54C44,54.76,80.33,85,129,85c12.51,0,30.61-2.58,30.61-17.46a14,14,0,0,0-.31-3.42Z" />
  <path
     id="path142"
     d="M581.24,94.3c0,11.89,7.15,17.67,20.19,17.67a52.11,52.11,0,0,0,11.89-1.68V96.51a24.84,24.84,0,0,1-7.68,1.16c-5.37,0-7.36-1.68-7.36-6.73V69.8h15.56V55.6H598.28v-18l-17,3.68V55.6H570V69.8h11.25Zm-53,.32c0-3.68,3.69-5.47,9.26-5.47a43.12,43.12,0,0,1,10.1,1.26v7.15A21.51,21.51,0,0,1,537,100.19c-5.46,0-8.73-2.1-8.73-5.57m5.2,17.56c6,0,10.84-1.26,15.36-4.31v3.37h16.82V75.58c0-13.56-9.14-21-24.39-21-8.52,0-16.94,2-26,6.1l6.1,12.52c6.52-2.74,12-4.42,16.83-4.42,7,0,10.62,2.73,10.62,8.31v2.73a49.53,49.53,0,0,0-12.62-1.58c-14.31,0-22.93,6-22.93,16.73,0,9.78,7.78,17.24,20.19,17.24m-92.44-.94h18.09V82.42h30.29v28.82h18.09V37.62H489.43V65.91H459.14V37.62H441.05ZM372.12,83.37c0-8,6.31-14.1,14.62-14.1a17.22,17.22,0,0,1,11.78,4.32V93a16.36,16.36,0,0,1-11.78,4.42c-8.2,0-14.62-6.1-14.62-14.09m26.61,27.87h16.83V33.94l-17,3.68V58.55a28.3,28.3,0,0,0-14.2-3.68c-16.19,0-28.92,12.51-28.92,28.5A28.25,28.25,0,0,0,383.8,112a25.12,25.12,0,0,0,14.93-4.83Zm-77.19-42.7c5.36,0,9.88,3.47,11.67,8.83H310c1.68-5.57,5.89-8.83,11.57-8.83M292.83,83.47c0,16.2,13.25,28.82,30.28,28.82,9.36,0,16.2-2.53,23.25-8.42l-11.26-10c-2.63,2.74-6.52,4.21-11.14,4.21a14.39,14.39,0,0,1-13.68-8.83h39.65V85.05c0-17.67-11.88-30.39-28.08-30.39a28.57,28.57,0,0,0-29,28.81M263.49,53.08c6,0,9.36,3.78,9.36,8.31s-3.37,8.31-9.36,8.31H245.61V53.08Zm-36,58.16h18.09V84.42h13.77l13.89,26.82h20.19l-16.2-29.45a22.27,22.27,0,0,0,13.88-20.72c0-13.25-10.41-23.45-26-23.45H227.52Z"
     class="a" />
</svg>
