<?xml version="1.0" encoding="UTF-8" standalone="no"?>
<!-- Created with Inkscape (http://www.inkscape.org/) -->

<svg
   xmlns:dc="http://purl.org/dc/elements/1.1/"
   xmlns:cc="http://creativecommons.org/ns#"
   xmlns:rdf="http://www.w3.org/1999/02/22-rdf-syntax-ns#"
   xmlns:svg="http://www.w3.org/2000/svg"
   xmlns="http://www.w3.org/2000/svg"
   xmlns:sodipodi="http://sodipodi.sourceforge.net/DTD/sodipodi-0.dtd"
   xmlns:inkscape="http://www.inkscape.org/namespaces/inkscape"
   width="200"
   height="80"
   id="svg1537"
   version="1.1"
   inkscape:version="0.49 r12322"
   sodipodi:docname="rdo-logo-red.svg">
  <defs
     id="defs1539" />
  <sodipodi:namedview
     id="base"
     pagecolor="#ffffff"
     bordercolor="#666666"
     borderopacity="0.58039216"
     inkscape:pageopacity="0.0"
     inkscape:pageshadow="2"
     inkscape:zoom="0.70710678"
     inkscape:cx="34.979587"
     inkscape:cy="-37.130649"
     inkscape:document-units="px"
     inkscape:current-layer="g2133"
     showgrid="false"
     fit-margin-top="0"
     fit-margin-left="0"
     fit-margin-right="0"
     fit-margin-bottom="0"
     inkscape:showpageshadow="false"
     showborder="true"
     inkscape:snap-page="true"
     inkscape:snap-bbox="true"
     inkscape:bbox-paths="true"
     inkscape:bbox-nodes="true"
     inkscape:snap-bbox-edge-midpoints="true"
     inkscape:snap-bbox-midpoints="true" />
  <metadata
     id="metadata1542">
    <rdf:RDF>
      <cc:Work
         rdf:about="">
        <dc:format>image/svg+xml</dc:format>
        <dc:type
           rdf:resource="http://purl.org/dc/dcmitype/StillImage" />
        <dc:title></dc:title>
      </cc:Work>
    </rdf:RDF>
  </metadata>
  <g
     inkscape:label="Layer 1"
     inkscape:groupmode="layer"
     id="layer1"
     transform="translate(-144,-356.36218)">
    <g
       id="g2133"
       transform="translate(-0.5,0)">
      <rect
         style="color:#000000;color-interpolation:sRGB;color-interpolation-filters:linearRGB;fill:#800f0f;fill-opacity:1;fill-rule:nonzero;stroke:none;stroke-width:2;marker:none;visibility:visible;display:inline;overflow:visible;enable-background:accumulate;clip-rule:nonzero"
         id="rect822"
         width="200"
         height="80"
         x="144.5"
         y="356.36218"
         rx="0"
         ry="0" />
      <g
         id="g841"
         transform="translate(-0.6257,-0.07931)">
        <path
           inkscape:connector-curvature="0"
           style="font-size:131.65306091px;font-style:normal;font-variant:normal;font-weight:bold;font-stretch:normal;text-indent:0;text-align:center;text-decoration:none;line-height:125%;letter-spacing:-10.04098225px;word-spacing:0px;text-transform:none;direction:ltr;block-progression:tb;writing-mode:lr-tb;text-anchor:middle;baseline-shift:baseline;color:#000000;fill:#ffffff;fill-opacity:1;stroke:none;stroke-width:21.74200058;marker:none;visibility:visible;display:inline;overflow:visible;enable-background:accumulate;font-family:Krona One;-inkscape-font-specification:Krona One Bold"
           d="m 170.14231,369.68183 0,11.55316 20.87101,0 c 4.43276,0 6.86393,0.98747 8.02904,1.9948 l 0.0166,0 0.0166,0.0166 c 1.27998,1.09124 1.89504,2.23001 1.89504,5.11996 0,1.49237 -0.23164,2.66613 -0.61506,3.65713 l 0,0.0332 -0.0166,0.0166 c -0.32822,0.87063 -0.74934,1.46881 -1.41298,2.0613 l -0.0166,0.0166 -0.0166,0.0333 c -0.46525,0.42458 -1.78271,1.19323 -2.90906,1.5792 -1.35047,0.46282 -3.06567,0.68157 -4.97037,0.68157 l -1.08051,0 -19.80712,0.0166 0,26.58061 12.96615,0 0,-15.04404 6.84097,0 0.74805,0 c 2.09692,0.90071 4.01491,2.23852 5.55216,3.90646 2.03283,2.20564 3.45196,5.039 4.02284,7.99578 0.19899,1.03057 0.29888,2.09217 0.29922,3.1418 l 7.21451,-0.0166 0,0.0166 7.97915,0 c 1.6e-4,-1.63482 -0.23172,-3.26108 -0.66492,-4.83737 -1.51539,-5.51397 -5.55025,-10.01588 -10.77188,-12.18485 1.83669,-0.7528 3.63248,-1.75055 5.30283,-3.17505 l 0.0166,0 c 2.07589,-1.74975 3.73217,-4.00141 4.75426,-6.51632 l 0.0166,-0.0499 c 1.01699,-2.48025 1.4961,-5.1716 1.4961,-7.91267 0,-5.42434 -2.23308,-10.71802 -6.38334,-14.03004 -4.26483,-3.43663 -9.84228,-4.65452 -16.22431,-4.65452 L 191.0133,369.68174 Z"
           id="path2109" />
        <path
           style="font-size:131.65306091px;font-style:normal;font-variant:normal;font-weight:bold;font-stretch:normal;text-indent:0;text-align:center;text-decoration:none;line-height:125%;letter-spacing:-10.04098225px;word-spacing:0px;text-transform:none;direction:ltr;block-progression:tb;writing-mode:lr-tb;text-anchor:middle;baseline-shift:baseline;color:#000000;fill:#ffffff;fill-opacity:1;stroke:none;stroke-width:21.74200058;marker:none;visibility:visible;display:inline;overflow:visible;enable-background:accumulate;font-family:Krona One;-inkscape-font-specification:Krona One Bold"
           d="m 218.26844,369.68183 0,11.55316 14.87784,0 c 3.08951,0 5.93983,0.30459 8.31163,1.13039 2.06571,0.71927 3.83939,1.67357 5.05348,2.84258 1.11884,1.07737 2.18575,2.70219 2.84258,4.42179 0.67761,1.77362 1.03169,4.12401 1.03064,6.53295 0,2.31933 -0.34865,4.62626 -1.01403,6.39996 -0.67302,1.79439 -1.74937,3.47533 -2.89243,4.62127 -1.27671,1.2799 -3.07605,2.32861 -5.08672,3.0753 -2.34624,0.87128 -5.1226,1.22346 -8.06229,1.21349 l -2.29401,0 0,-15.01082 -12.96615,0 0,26.58062 12.96615,0 2.99218,0 c 4.23896,0.0144 8.77228,-0.38928 13.26537,-1.87843 3.41869,-1.13308 6.99025,-2.82661 10.07371,-5.58541 2.7201,-2.43368 4.81259,-5.44177 6.20047,-8.74385 1.48344,-3.52924 1.9932,-7.20474 1.9948,-10.65551 l 0,-0.0166 c 1.5e-4,-3.48411 -0.49005,-7.2399 -2.04467,-10.87162 -1.40987,-3.2939 -3.5469,-6.26137 -6.30021,-8.62748 -3.15971,-2.71518 -6.74786,-4.25267 -10.07371,-5.28619 -4.51261,-1.40218 -9.00465,-1.69558 -13.149,-1.69558 L 233.14628,369.68185 Z"
           id="path2107"
           inkscape:connector-curvature="0" />
        <path
           id="path6220"
           style="font-size:131.65306091px;font-style:normal;font-variant:normal;font-weight:bold;font-stretch:normal;text-indent:0;text-align:center;text-decoration:none;line-height:125%;letter-spacing:-10.04098225px;word-spacing:0px;text-transform:none;direction:ltr;block-progression:tb;writing-mode:lr-tb;text-anchor:middle;baseline-shift:baseline;color:#000000;fill:#ffffff;fill-opacity:1;stroke:none;stroke-width:21.74200058;marker:none;visibility:visible;display:inline;overflow:visible;enable-background:accumulate;font-family:Krona One;-inkscape-font-specification:Krona One Bold"
           d="m 294.81161,382.24902 c 7.86356,0 14.09654,6.24969 14.09654,14.11315 0,7.86355 -6.23301,14.11315 -14.09654,14.11315 -7.86344,0 -14.11314,-6.24961 -14.11314,-14.11315 C 280.69847,388.49873 286.94815,382.24902 294.81161,382.24902 z m 0,-12.96615 c -14.87544,0 -27.07929,12.20382 -27.07929,27.0793 0,14.87552 12.20383,27.07932 27.07929,27.07932 14.87552,0 27.06269,-12.20382 27.06269,-27.07932 C 321.8743,381.48671 309.68712,369.28287 294.81161,369.28287 Z"
           inkscape:connector-curvature="0" />
      </g>
    </g>
  </g>
</svg>
